<svg width="24" height="24" viewBox="0 0 24 24" fill="none" xmlns="http://www.w3.org/2000/svg">
<path d="M1.50001 6.86251H22.5C22.95 6.86251 23.3625 6.48751 23.3625 6.00001C23.3625 5.51251 22.9875 5.13751 22.5 5.13751H1.50001C1.05001 5.13751 0.637512 5.51251 0.637512 6.00001C0.637512 6.48751 1.05001 6.86251 1.50001 6.86251Z" fill="white"/>
<path d="M22.5 11.175H1.50001C1.05001 11.175 0.637512 11.55 0.637512 12.0375C0.637512 12.4875 1.01251 12.9 1.50001 12.9H22.5C22.95 12.9 23.3625 12.525 23.3625 12.0375C23.3625 11.55 22.95 11.175 22.5 11.175Z" fill="white"/>
<path d="M22.5 17.1375H1.50001C1.05001 17.1375 0.637512 17.5125 0.637512 18C0.637512 18.4875 1.01251 18.8625 1.50001 18.8625H22.5C22.95 18.8625 23.3625 18.4875 23.3625 18C23.3625 17.5125 22.95 17.1375 22.5 17.1375Z" fill="white"/>
</svg>
